# xmcd CD database file
#
# Track frame offsets:
#	150
#	13055
#	29429
#	42200
#	56215
#	71584
#	94640
#	113314
#	126942
#	144368
#	160376
#	179066
#
# Disc length: 2589 seconds
#
# Revision: 0
# Processed by: cddbd v1.5.2PL0 Copyright (c) Steve Scherf et al.
# Submitted via: cdripper 1,0,33,916
#
DISCID=a40a1b0c
DTITLE=Carter Falco - If It Ain't One Thing
DYEAR=2006
DGENRE=Country
TTITLE0=Country Music
TTITLE1=Comin' Down
TTITLE2=If It Ain't One Thing (featuring Shooter Jennings)
TTITLE3=Move Along (featuring Lucy Walsh)
TTITLE4=Hello L.A.
TTITLE5=Tattoos and Scars
TTITLE6=I Can't Wait
TTITLE7=Long Gone (featuring Shooter Jennings)
TTITLE8=That Someone Is You
TTITLE9=Galveston
TTITLE10=Don't Hate Me
TTITLE11=Union Song
EXTD=YEAR: 2006
EXTT0=
EXTT1=
EXTT2=
EXTT3=
EXTT4=
EXTT5=
EXTT6=
EXTT7=
EXTT8=
EXTT9=
EXTT10=
EXTT11=
PLAYORDER=
